<!-- Created with Inkscape (http://www.inkscape.org/) -->
<svg xmlns:rdf="http://www.w3.org/1999/02/22-rdf-syntax-ns#" xmlns="http://www.w3.org/2000/svg" version="1.1" xmlns:cc="http://creativecommons.org/ns#" xmlns:dc="http://purl.org/dc/elements/1.1/" viewBox="0 0 301.781 70.6013">
 <defs></defs>
 <metadata>
  <rdf:RDF>
   <cc:Work rdf:about="">
    <dc:format>image/svg+xml</dc:format>
    <dc:type rdf:resource="http://purl.org/dc/dcmitype/StillImage"/>
    <dc:title/>
   </cc:Work>
  </rdf:RDF>
 </metadata>
 <g fill-rule="nonzero" transform="translate(-306.25,-368.49242)">
  <path fill="#fff" d="m411.188,423.125c-4.5752,0-7,3.67774-7,7.125,0,3.87695,2.74805,6.84375,6.625,6.84375,3.9209,0,6.90625-2.88867,6.90625-7.15625,0-4.04296-2.98145-6.8125-6.53125-6.8125zm-0.53125,0.6875c2.93456,0,5.0625,2.44141,5.0625,6.875,0,3.81836-2.00781,5.71875-4.46875,5.71875-2.99805,0-5.0625-2.79004-5.0625-6.75,0-3.85742,2.04687-5.84375,4.46875-5.84375zm9.9375,1.40625-1.34375,1.375,0,1.28125-0.96875,0-0.59375,0.5625,0.0625,0.21875,1.5,0,0,5.875c0,1.64063,0.71778,2.5,2.03125,2.5,0.14648,0,0.41992-0.0537,0.625-0.15625l1.6875-0.84375-0.21875-0.46875c-0.39063,0.22949-0.84766,0.40625-1.21875,0.40625-0.55176,0-1.3125-0.30469-1.3125-1.90625v-5.40625h2.25c0.005-0.005,0.0263,0.005,0.0312,0h1.5v5.875c0,1.64063,0.71778,2.5,2.03125,2.5,0.1416,0,0.38867-0.0537,0.59375-0.15625l1.6875-0.84375-0.1875-0.46875c-0.39063,0.22949-0.85254,0.40625-1.21875,0.40625-0.55664,0-1.3125-0.30469-1.3125-1.90625v-5.40625h2.21875c0.2441-0.22461,0.32226-0.55176,0.15625-0.78125h-2.375v-2.65625h-0.28125l-1.3125,1.375v1.28125h-1l-0.3125,0.28125c-0.003-0.0978-0.005-0.19929-0.0625-0.28125h-2.40625v-2.65625h-0.25zm12.375,2.40625c-1.45507,0.26855-2.66309,1.06642-3.15625,1.4375-0.44923,0.32715-0.6875,0.60645-0.6875,0.875,0,0.36621,0.54785,0.6875,0.875,0.6875,0.2295,0,0.40525-0.13086,0.46875-0.375,0.22462-0.86427,0.6504-1.75,1.65625-1.75,1.08888,0,1.6875,0.69434,1.6875,1.96875v0.6875c-0.61524,0.42969-2.30664,1.02735-3.3125,1.4375-1.06445,0.42969-1.53125,1.12012-1.53125,2.0625,0,1.12794,0.94335,2.375,2.4375,2.375,0.42969,0,1.54199-0.78712,2.40625-1.34375,0.12207,0.51268,0.42677,1.2168,1.125,1.34375l2.09375-1-0.1875-0.46875c-0.36621,0.18555-0.70899,0.28125-0.875,0.28125-0.30762,0-0.59375-0.36817-0.59375-1.125v-4.59375c0-0.74219-0.10254-1.46777-0.78125-2-0.40526-0.30761-1.04882-0.5-1.625-0.5zm19.7812,0c-1.45996,0.26855-2.6582,1.06642-3.15625,1.4375-0.44921,0.32715-0.6875,0.60645-0.6875,0.875,0,0.36621,0.54785,0.6875,0.875,0.6875,0.22949,0,0.41015-0.13086,0.46875-0.375,0.22461-0.86427,0.65527-1.75,1.65625-1.75,1.08886,0,1.6875,0.69434,1.6875,1.96875v0.6875c-0.61523,0.42969-2.28028,1.02735-3.28125,1.4375-1.06934,0.42969-1.5625,1.12012-1.5625,2.0625,0,1.12794,0.94337,2.375,2.4375,2.375,0.43458,0,1.54688-0.78712,2.40625-1.34375,0.12206,0.51268,0.42676,1.2168,1.125,1.34375l2.09375-1-0.1875-0.46875c-0.3711,0.18555-0.70899,0.28125-0.875,0.28125-0.30763,0-0.59375-0.36817-0.59375-1.125v-4.59375c0-0.74219-0.10742-1.46777-0.78125-2-0.41016-0.30761-1.05371-0.5-1.625-0.5zm-17.5,0.25,0,0.46875c1.04492,0.14647,1.12889,0.16601,1.5,1.25l2.46875,7.34375h0.5625c0.86426-2.36328,1.67578-4.41895,2.4375-6.40625l2.5625,6.40625h0.5625c0.90333-2.72949,1.75097-5.11426,2.46875-7.0625,0.4541-1.21093,0.60743-1.36523,1.59375-1.53125v-0.46875h-3.65625v0.46875l0.78125,0.0937c0.57125,0.083,0.61524,0.29884,0.46875,0.875-0.36621,1.49415-1.03809,3.66992-1.53125,5.125h-0.0312l-2.5-6.46875h-0.46875c-0.92285,2.42187-1.7002,4.5791-2.4375,6.46875h-0.0312l-1.71875-5.15625c-0.18555-0.53711-0.0664-0.70315,0.34375-0.78125l0.84375-0.15625v-0.46875h-4.21875zm-1.4375,3.9375,0,3.28125c-0.55664,0.42969-1.30762,0.8125-1.78125,0.8125-0.61523,0-1.34375-0.50978-1.34375-1.59375,0-0.74219,0.34474-1.17676,1.0625-1.5625,0.39062-0.20509,1.6084-0.75194,2.0625-0.9375zm19.7812,0,0,3.28125c-0.55176,0.42969-1.30763,0.8125-1.78125,0.8125-0.61524,0-1.34375-0.50978-1.34375-1.59375,0-0.74219,0.34962-1.17676,1.0625-1.5625,0.39063-0.20509,1.61328-0.75194,2.0625-0.9375z"/>
  <path fill="#fff" d="m453.576,416.161c-4.38476,1.66015-8.47168,5.13671-12.8564,7.40722l48.2422-52.4756-0.9082,0.30274-53.3789,40.0781-2.11425-3.33009-24.3555,9.07715,81.2061-46.7285-27.2168,58.6719z"/>
  <path fill="#fff" d="m379.656,391.875c-0.75197,0.1709-1.7959,0.4121-2.40625,0.5v0.375c0.91807,0.0879,0.9375,0.0713,0.9375,0.90625v6.9375c0,0.77637-0.0899,0.88575-0.96875,0.96875v0.375h3.40625v-0.375c-0.92286-0.083-0.96875-0.19238-0.96875-0.96875v-8.71875zm-24.8125,0.40625c-0.4834,0-0.90625,0.39551-0.90625,0.9375,0,0.49317,0.42285,0.90625,0.90625,0.90625,0.49316,0,0.9375-0.41308,0.9375-0.90625,0-0.54199-0.44434-0.9375-0.9375-0.9375zm39.75,0c-0.4834,0-0.90625,0.39551-0.90625,0.9375,0,0.49317,0.42285,0.90625,0.90625,0.90625,0.49316,0,0.9375-0.41308,0.9375-0.90625,0-0.54199-0.44434-0.9375-0.9375-0.9375zm-6.3125,0.28125-0.5625,0.1875-2.875,7.34375c-0.49318,1.27441-0.65235,1.3565-1.53125,1.46875v0.375h3.15625v-0.375l-0.40625-0.0625c-0.625-0.0684-0.72266-0.24805-0.46875-1,0.19531-0.59082,0.44434-1.3877,0.625-1.8125h2.625c0.29785,0.7373,0.63965,1.60645,0.78125,2.03125,0.1709,0.53711,0.13085,0.69825-0.40625,0.78125l-0.375,0.0625v0.375h3.71875v-0.375c-0.82032-0.083-1.0166-0.20898-1.5-1.46875-0.5371-1.41601-1.17773-3.14649-1.8125-4.875l-0.96875-2.65625zm-80.032,0.188v0.375c1.10356,0.0879,1.21875,0.22169,1.21875,1.75v4.9375c0,1.5332-0.11524,1.667-1.21875,1.75v0.375h4v-0.375c-1.07904-0.083-1.1875-0.2168-1.1875-1.75v-4.9375c0-1.52831,0.1084-1.6621,1.1875-1.75v-0.375h-4zm14.0312,1.09375-1.28125,1.09375,0,0.84375-0.59375,0-0.4375,0.46875,0.0937,0.1875,0.9375,0,0,4c0,1.17677,0.53417,1.6875,1.59375,1.6875,0.1123,0,0.2539-0.044,0.46875-0.15625l1.25-0.625-0.157-0.345c-0.30761,0.17087-0.64551,0.25-0.875,0.25-0.28321,0-0.8125-0.20898-0.8125-1.3125v-3.5h1.375c0.20027-0.11232,0.26465-0.48535,0.0937-0.65625h-1.46875v-1.8125l-0.1875-0.125zm28.5312,0-1.25,1.09375,0,0.84375-0.59375,0-0.46875,0.46875,0.0937,0.1875,0.96875,0,0,4c0,1.17677,0.53418,1.6875,1.59375,1.6875,0.11719,0,0.25879-0.044,0.46875-0.15625l1.21875-0.625-0.156-0.345c-0.30762,0.17087-0.65039,0.25-0.875,0.25-0.28809,0-0.78125-0.20898-0.78125-1.3125v-3.5h1.375c0.19538-0.11232,0.2334-0.48535,0.0625-0.65625h-1.4375v-1.8125l-0.21875-0.125zm73.0312,0-1.25,1.09375,0,0.84375-0.59375,0-0.46875,0.46875,0.0937,0.1875,0.96875,0,0,4c0,1.17677,0.53417,1.6875,1.59375,1.6875,0.1123,0,0.2539-0.044,0.46875-0.15625l1.21875-0.625-0.156-0.345c-0.30761,0.17087-0.64551,0.25-0.875,0.25-0.28321,0-0.78125-0.20898-0.78125-1.3125v-3.5h1.34375c0.20027-0.11232,0.26465-0.48535,0.0937-0.65625h-1.4375v-1.8125l-0.21875-0.125zm-36.3438,1.0625,0.0312,0,1.09375,3.125-2.25,0,1.125-3.125zm16.97,0.594c-0.89355,0.25391-1.68358,0.48338-2.40625,0.625v0.34375c0.93752,0.083,0.96875,0.1084,0.96875,0.875v6.46875c0,0.75195-0.0898,0.81835-0.96875,0.90625v0.40625h3.65625v-0.40625c-1.1377-0.0879-1.25-0.1543-1.25-0.90625v-1.9375c0.20996,0.11236,0.5752,0.25,1,0.25,1.87011-0.39551,3.40625-1.73438,3.40625-3.84375,0-1.25976-0.79004-2.65625-2.40625-2.65625-0.22462,0-0.4209,0.0401-0.5625,0.0937l-1.4375,0.75v-0.96875zm-89.125,0.0937c-0.73731,0.22462-1.65038,0.419-2.34375,0.53125v0.34375c0.87413,0.083,0.875,0.1045,0.875,0.96875v3.1875c0,0.78125-0.0772,0.8545-1,0.9375v0.375h3.25v-0.375c-0.70801-0.083-0.78125-0.15625-0.78125-0.9375v-3.46875c0.3955-0.3418,0.85644-0.59375,1.28125-0.59375,0.7373,0,1.15625,0.49414,1.15625,1.34375v2.71875c0,0.78125-0.0693,0.8545-0.875,0.9375v0.375h3.1875v-0.375c-0.79101-0.083-0.84375-0.15625-0.84375-0.9375v-3.125c0-1.0791-0.69629-1.875-1.84375-1.875-0.43945,0-0.7959,0.1709-1.25,0.46875-0.25391,0.16602-0.5293,0.3291-0.8125,0.5v-1zm17.1562,0c-0.73731,0.22461-1.68164,0.419-2.375,0.53125v0.34375c0.87412,0.083,0.90625,0.1045,0.90625,0.96875v3.15625c0,0.77636-0.0713,0.88575-0.90625,0.96875v0.375h3.5v-0.375c-1.03517-0.083-1.125-0.19239-1.125-0.96875v-2.84375c0.3125-0.625,0.63575-0.8125,0.875-0.8125,0.22462,0,0.46093,0.11718,0.65625,0.3125,0.0879,0.0878,0.25,0.1211,0.40625,0.0625,0.32715-0.12695,0.59375-0.54982,0.59375-0.90625,0-0.39552-0.39356-0.8125-0.90625-0.8125-0.69336,0-1.25684,0.90038-1.59375,1.4375h-0.0312v-1.4375zm5.3125,0c-0.7373,0.22462-1.68164,0.419-2.375,0.53125v0.34375c0.879,0.083,0.90625,0.1045,0.90625,0.96875v3.1875c0,0.78125-0.082,0.8545-1,0.9375v0.375h3.28125v-0.375c-0.70802-0.083-0.8125-0.15625-0.8125-0.9375v-3.46875c0.39551-0.3418,0.85645-0.59375,1.28125-0.59375,0.73243,0,1.15625,0.49414,1.15625,1.34375v2.71875c0,0.78125-0.0645,0.8545-0.875,0.9375v0.375h3.1875v-0.375c-0.79102-0.083-0.84375-0.15625-0.84375-0.9375v-3.125c0-1.0791-0.69629-1.875-1.84375-1.875-0.43945,0-0.7959,0.1709-1.25,0.46875-0.25392,0.16602-0.5293,0.3291-0.8125,0.5v-1zm17.8125,0c-0.7373,0.22462-1.65038,0.419-2.34375,0.53125v0.34375c0.87893,0.083,0.875,0.1045,0.875,0.96875v3.15625c0,0.77637-0.0293,0.88575-0.9375,0.96875v0.375h3.375v-0.375c-0.88867-0.083-0.96875-0.19238-0.96875-0.96875v-5zm10.3438,0c-0.73731,0.22462-1.68165,0.419-2.375,0.53125v0.34375c0.87891,0.083,0.90625,0.1045,0.90625,0.96875v3.1875c0,0.78125-0.082,0.8545-1,0.9375v0.375h3.25v-0.375c-0.70311-0.083-0.78125-0.15625-0.78125-0.9375v-3.46875c0.39551-0.3418,0.85645-0.59375,1.28125-0.59375,0.7373,0,1.15625,0.49414,1.15625,1.34375v2.71875c0,0.78125-0.0693,0.8545-0.875,0.9375v0.375h3.1875v-0.375c-0.79591-0.083-0.84375-0.15625-0.84375-0.9375v-3.125c0-1.0791-0.69629-1.875-1.84375-1.875-0.43945,0-0.7959,0.1709-1.25,0.46875-0.2539,0.16602-0.5293,0.3291-0.8125,0.5v-1zm29.4062,0c-0.7373,0.22462-1.68164,0.419-2.375,0.53125v0.34375c0.879,0.083,0.9375,0.1045,0.9375,0.96875v3.15625c0,0.77637-0.0654,0.88575-0.96875,0.96875v0.375h3.375v-0.375c-0.88867-0.083-0.96875-0.19238-0.96875-0.96875v-5zm3.8125,0c-0.73731,0.22461-1.68163,0.419-2.375,0.53125v0.34375c0.87893,0.083,0.90625,0.1045,0.90625,0.96875v3.15625c0,0.77636-0.0713,0.88575-0.90625,0.96875v0.375h3.5v-0.375c-1.03516-0.083-1.125-0.19239-1.125-0.96875v-2.84375c0.3125-0.625,0.63574-0.8125,0.875-0.8125,0.22461,0,0.46094,0.11718,0.65625,0.3125,0.0879,0.0878,0.25,0.1211,0.40625,0.0625,0.32228-0.12695,0.59375-0.54982,0.59375-0.90625,0-0.39552-0.36719-0.8125-0.875-0.8125-0.69824,0-1.25684,0.90038-1.59375,1.4375h-0.0625v-1.4375zm19.5312,0c-0.73731,0.22461-1.68164,0.419-2.375,0.53125v0.34375c0.87892,0.083,0.90625,0.1045,0.90625,0.96875v3.15625c0,0.77636-0.0713,0.88575-0.90625,0.96875v0.375h3.46875v-0.375c-1.03517-0.083-1.09375-0.19239-1.09375-0.96875v-2.84375c0.3125-0.625,0.63087-0.8125,0.875-0.8125,0.22462,0,0.46093,0.11718,0.65625,0.3125,0.083,0.0878,0.25,0.1211,0.40625,0.0625,0.32715-0.12695,0.5625-0.54982,0.5625-0.90625,0-0.39552-0.36231-0.8125-0.875-0.8125-0.69336,0-1.25684,0.90038-1.59375,1.4375h-0.0312v-1.4375zm-91.092,0.031c-1.87011,0-3.18545,1.72754-3.15625,3.5,0.0293,1.65528,1.11329,3,2.96875,3,0.39552,0,1.47559-0.292,2.28125-1.46875l-0.1875-0.25c-0.55175,0.4248-1.0166,0.59375-1.5,0.59375-1.05958,0-2.18065-0.71778-2.15625-2.5,1.54298-0.0586,3.3623-0.2208,3.5625-0.25,0.26865-0.0537,0.3125-0.0713,0.3125-0.59375,0-1.02052-0.93358-2.03125-2.125-2.03125zm18.25,0c-1.0498,0.19532-1.9043,0.72363-2.34375,1.03125-0.29785,0.2295-0.4375,0.45606-0.4375,0.65625,0,0.33691,0.41114,0.625,0.71875,0.625,0.2295,0,0.3936-0.11719,0.4375-0.3125,0.11231-0.53712,0.27051-0.87695,0.5-1.0625,0.12695-0.12702,0.30175-0.21875,0.53125-0.21875,0.64941,0,1.03125,0.38379,1.03125,1.21875v0.375c-0.4541,0.27832-1.5879,0.68555-2.28125,0.96875-0.73731,0.3125-1.0625,0.80664-1.0625,1.5,0,0.82032,0.65429,1.71875,1.71875,1.71875,0.2832,0,1.06543-0.5498,1.65625-0.90625,0.0732,0.35645,0.35058,0.87705,1,0.90625l1.469-0.781-0.156-0.344c-0.18555,0.083-0.39162,0.15625-0.5625,0.15625-0.2002,0-0.40625-0.21483-0.40625-0.78125v-3.03125c0-0.49805-0.0566-0.95997-0.59375-1.375-0.28321-0.20997-0.72559-0.34375-1.21875-0.34375zm14.1875,0c-1.4746,0-3.25,1.10938-3.25,3.375,0,1.54296,1.09473,3.125,3.21875,3.125,1.51367,0,3.15625-1.15331,3.15625-3.375,0-1.68456-1.25487-3.125-3.125-3.125zm13.9688,0c-1.04492,0.19532-1.9043,0.72363-2.34375,1.03125-0.29785,0.2295-0.4375,0.45606-0.4375,0.65625,0,0.33691,0.40625,0.625,0.71875,0.625,0.22461,0,0.3985-0.11719,0.4375-0.3125,0.11719-0.53712,0.2754-0.87695,0.5-1.0625,0.12696-0.12702,0.30664-0.21875,0.53125-0.21875,0.6543,0,1.03125,0.38379,1.03125,1.21875v0.375c-0.45412,0.27832-1.5879,0.68555-2.28125,0.96875-0.73731,0.3125-1.0625,0.80664-1.0625,1.5,0,0.82032,0.6543,1.71875,1.71875,1.71875,0.27832,0,1.06055-0.5498,1.65625-0.90625,0.0684,0.35645,0.3457,0.87705,1,0.90625l1.46875-0.78125-0.156-0.344c-0.18555,0.083-0.3916,0.15625-0.5625,0.15625-0.19531,0-0.40625-0.21483-0.40625-0.78125v-3.03125c0-0.49805-0.0518-0.95997-0.59375-1.375-0.27833-0.20997-0.7207-0.34375-1.21875-0.34375zm38.7812,0c-1.47461,0-3.25,1.10938-3.25,3.375,0,1.54296,1.09473,3.125,3.21875,3.125,1.51368,0,3.125-1.15331,3.125-3.375,0-1.68456-1.22364-3.125-3.09375-3.125zm-52.9375,0.53125c1.06445,0,1.625,1.11719,1.625,2.875,0,2.01171-0.70215,2.5625-1.3125,2.5625-1.03516,0-1.6875-1.26075-1.6875-3.0625,0-1.52832,0.68164-2.375,1.375-2.375zm52.7188,0c1.06446,0,1.65625,1.11719,1.65625,2.875,0,2.01171-0.73339,2.5625-1.34375,2.5625-1.03026,0-1.65625-1.26075-1.65625-3.0625,0-1.52832,0.6504-2.375,1.34375-2.375zm-85.343,0.032c0.62013,0,1.0625,0.7461,1.0625,1.3125,0,0.31251-0.0547,0.375-0.25,0.375l-2.125,0.0312c0.1123-1.06445,0.7168-1.71875,1.3125-1.71875zm78.375,0.40625c0.9082,0,1.75,0.63868,1.75,2.40625,0,1.82618-0.94434,2.40625-1.59375,2.40625-0.52246,0-0.98535-0.23145-1.3125-0.5v-3.875c0.35645-0.25392,0.76074-0.4375,1.15625-0.4375zm-59.3125,1.875,0,2.25c-0.32714,0.2832-0.6836,0.4375-0.9375,0.4375-0.36621,0-0.875-0.32518-0.875-1.0625,0-0.50781,0.22363-0.8086,0.6875-1.0625,0.25879-0.14161,0.82715-0.4209,1.125-0.5625zm28.1562,0,0,2.25c-0.32715,0.2832-0.68359,0.4375-0.9375,0.4375-0.37109,0-0.875-0.32518-0.875-1.0625,0-0.50781,0.21875-0.8086,0.6875-1.0625,0.25391-0.14161,0.82713-0.4209,1.125-0.5625zm-3.84375,5.0625c-0.73729,0.1709-1.81054,0.4121-2.40625,0.5v0.34375c0.89366,0.0586,0.9375,0.10058,0.9375,0.90625v6.96875c0,0.80568-0.0781,0.8496-0.9375,0.9375v0.40625h3.15625v-0.40625c-0.67872-0.0879-0.75-0.13182-0.75-0.9375v-3.53125c0.32227-0.33691,0.77735-0.5,1.1875-0.5,0.79101,0,1.25,0.47754,1.25,1.46875v2.5625c0,0.80568-0.0586,0.8496-0.78125,0.9375v0.40625h3.09375v-0.40625c-0.75196-0.0879-0.84375-0.13182-0.84375-0.9375v-2.90625c0-1.28906-0.69628-2.0625-2-2.0625-0.70801,0.0293-1.41308,0.4375-1.90625,0.90625v-4.65625zm18.75,0.40625c-0.4834,0-0.90625,0.39551-0.90625,0.9375,0,0.49316,0.42285,0.875,0.90625,0.875,0.49805,0,0.9375-0.38184,0.9375-0.875,0-0.54199-0.43945-0.9375-0.9375-0.9375zm-36.9375,0.28125-0.5625,0.15625-2.875,7.375c-0.49805,1.27441-0.65722,1.32525-1.53125,1.4375v0.40625h3.15625v-0.40625l-0.40625-0.0312c-0.625-0.0684-0.72754-0.24804-0.46875-1,0.19531-0.59082,0.43946-1.38769,0.625-1.8125h2.625c0.29297,0.73731,0.63965,1.60643,0.78125,2.03125,0.1709,0.5371,0.13086,0.667-0.40625,0.75l-0.375,0.0625v0.40625h3.71875v-0.40625c-0.82032-0.083-1.01661-0.17774-1.5-1.4375-0.53711-1.41603-1.17774-3.17773-1.8125-4.90625l-0.96875-2.625zm13.4375,1.28125-1.25,1.09375,0,0.84375-0.59375,0-0.4375,0.46875,0.0625,0.1875,0.96875,0,0,3.96875c0,1.17675,0.5293,1.6875,1.59375,1.6875,0.1123,0,0.25878-0.0127,0.46875-0.125l1.25-0.625-0.1875-0.34375c-0.3125,0.17086-0.61914,0.21875-0.84375,0.21875-0.2832,0-0.8125-0.17774-0.8125-1.28125v-3.5h1.375c0.20012-0.1123,0.2334-0.49023,0.0625-0.65625h-1.4375v-1.8125l-0.21875-0.125zm27.4375,0-1.28125,1.09375,0,0.84375-0.59375,0-0.4375,0.46875,0.0625,0.1875,0.96875,0,0,3.96875c0,1.17675,0.53419,1.6875,1.59375,1.6875,0.11719,0,0.2588-0.0127,0.46875-0.125l1.25-0.625-0.1875-0.34375c-0.3125,0.17086-0.61914,0.21875-0.84375,0.21875-0.2832,0-0.8125-0.17774-0.8125-1.28125v-3.5h1.375c0.19525-0.1123,0.2334-0.49023,0.0625-0.65625h-1.4375v-1.8125l-0.1875-0.125zm-41.6875,1.0625,0.0625,0,1.09375,3.125-2.25,0,1.09375-3.125zm33.2188,0.6875c-0.73731,0.22462-1.68164,0.419-2.375,0.53125v0.34375c0.87892,0.083,0.90625,0.10449,0.90625,0.96875v3.15625c0,0.77638-0.0713,0.8545-0.90625,0.9375v0.40625h3.5v-0.40625c-1.03517-0.083-1.125-0.16112-1.125-0.9375v-2.875c0.3125-0.625,0.63575-0.78125,0.875-0.78125,0.2295,0,0.46093,0.11719,0.65625,0.3125,0.0879,0.0878,0.25,0.1162,0.40625,0.0625,0.32228-0.12695,0.59375-0.5498,0.59375-0.90625,0-0.3955-0.36718-0.8125-0.875-0.8125-0.69335,0-1.28809,0.90039-1.625,1.4375h-0.0312v-1.4375zm5.3125,0c-0.7373,0.22462-1.68164,0.419-2.375,0.53125v0.34375c0.879,0.083,0.90625,0.10449,0.90625,0.96875v3.15625c0,0.77638-0.0342,0.8545-0.9375,0.9375v0.40625h3.375v-0.40625c-0.89357-0.083-0.96875-0.16112-0.96875-0.9375v-5zm-11.2188,0.0312c-1.47462,0-3.25,1.10938-3.25,3.375,0,1.54298,1.09472,3.09375,3.21875,3.09375,1.51367,0,3.15625-1.12207,3.15625-3.34375,0-1.68945-1.25489-3.125-3.125-3.125zm-20.0938,0.0625c-0.63476,0.0732-1.70507,0.2159-2.28125,0.25v0.34375l0.375,0.0937c0.3125,0.0586,0.46875,0.13379,0.46875,0.65625v3.15625c0,1.23047,0.71094,1.90625,1.84375,1.90625,0.39551,0,0.72169-0.1377,1.15625-0.40625,0.3125-0.2002,0.5918-0.41016,0.875-0.625v0.9375l0.125,0.0937c0.66895-0.1709,1.59179-0.4121,2.34375-0.5v-0.40625h-0.53125c-0.38575,0-0.46875-0.0918-0.46875-0.6875v-4.8125c-0.61035,0.0732-1.74218,0.2159-2.40625,0.25v0.34375l0.375,0.0625c0.48342,0.083,0.5625,0.16504,0.5625,0.6875v3.5c-0.4541,0.39551-0.91895,0.59375-1.34375,0.59375-0.53711,0-1.09375-0.33008-1.09375-1.375v-4.0625zm36.5312,0.0937,0,0.40625c0.7666,0.083,0.8291,0.11719,1.15625,0.9375,0.3125,0.7959,1.10059,2.66895,1.75,4.5,0.088,0.22461,0.0899,0.3125,0.0312,0.46875-0.0537,0.1709-0.2315,0.58985-0.34375,0.84375-0.23926,0.5127-0.6377,0.89452-1.0625,1.1875-0.22466,0.15625-0.34375,0.30665-0.34375,0.53125-0.0147,0.3125,0.41699,0.71875,0.8125,0.71875,0.1709,0,0.3399-0.0674,0.4375-0.375,0.23927-0.75195,0.59862-1.70899,1.53125-3.90625,0.82031-1.96778,1.33789-3.15625,1.71875-3.9375,0.3955-0.80566,0.45899-0.8565,1.25-0.96875v-0.40625h-2.59375v0.40625l0.5,0.0625c0.33691,0.0439,0.3584,0.12305,0.1875,0.5625-0.1709,0.4541-0.9502,2.57715-1.21875,3.1875l-1.185-3.158c-0.14159-0.36621-0.16602-0.54975,0.15625-0.59375l0.4375-0.0625v-0.40625h-3.21875zm-16.625,0.375c1.06446,0,1.625,1.11719,1.625,2.875,0,2.00684-0.70214,2.5625-1.3125,2.5625-1.03515,0-1.6875-1.26562-1.6875-3.0625,0-1.52831,0.68165-2.375,1.375-2.375z"/>
  <path fill="#fff" d="m502.719,391.906c-0.73243,0.16601-1.74609,0.38775-2.46875,0.5v0.34375c0.97656,0.0537,1.03125,0.10058,1.03125,0.90625v2.0625c-0.32715-0.0441-0.57715-0.0625-0.71875-0.0625-2.19726,0-3.78125,1.52148-3.78125,3.40625,0,2.08007,1.61329,3.0625,2.84375,3.0625,0.1416,0,0.35645-0.0312,0.625-0.1875l1.03125-0.59375v0.8125c0.97656-0.33691,2.18359-0.5039,2.4375-0.5625v-0.40625h-0.5c-0.3955,0-0.5-0.0625-0.5-0.6875v-8.59375zm79.9062,0c-0.7373,0.16601-1.74609,0.38775-2.46875,0.5v0.34375c0.97666,0.0537,1,0.10058,1,0.90625v2.0625c-0.32715-0.0441-0.5459-0.0625-0.6875-0.0625-2.19237,0-3.78125,1.52148-3.78125,3.40625,0,2.08007,1.6084,3.0625,2.84375,3.0625,0.1416,0,0.35645-0.0312,0.625-0.1875l1-0.59375v0.8125c0.97657-0.33691,2.21484-0.5039,2.46875-0.5625v-0.40625h-0.53125c-0.39551,0-0.46875-0.0625-0.46875-0.6875v-8.59375zm-65.3125,0.40625c-0.4834,0-0.90625,0.40039-0.90625,0.9375,0,0.49805,0.42285,0.875,0.90625,0.875,0.49316,0,0.9375-0.37695,0.9375-0.875,0-0.53711-0.44434-0.9375-0.9375-0.9375zm11.5312,0c-0.47852,0-0.90625,0.40039-0.90625,0.9375,0,0.49805,0.42773,0.875,0.90625,0.875,0.49805,0,0.90625-0.37695,0.90625-0.875,0-0.53711-0.4082-0.9375-0.90625-0.9375zm28.6562,0c-0.4834,0-0.90625,0.40039-0.90625,0.9375,0,0.49805,0.42285,0.875,0.90625,0.875,0.49805,0,0.9375-0.37695,0.9375-0.875,0-0.53711-0.43945-0.9375-0.9375-0.9375zm-64.9688,0.28125-0.5625,0.15625-2.875,7.375c-0.49803,1.27441-0.65722,1.32525-1.53125,1.4375v0.40625h3.15625v-0.40625l-0.40625-0.0312c-0.62011-0.0732-0.72266-0.24805-0.46875-1,0.19531-0.5957,0.44434-1.3877,0.625-1.8125h2.625c0.29784,0.73242,0.63965,1.60644,0.78125,2.03125,0.1709,0.54199,0.13087,0.6621-0.40625,0.75l-0.375,0.0625v0.40625h3.71875v-0.40625c-0.82031-0.083-1.0166-0.17774-1.5-1.4375-0.53711-1.41602-1.17773-3.17774-1.8125-4.90625l-0.96875-2.625zm45.4375,1.28125-1.28125,1.09375,0,0.84375-0.59375,0-0.4375,0.46875,0.0625,0.1875,0.96875,0,0,3.96875c0,1.17676,0.5293,1.6875,1.59375,1.6875,0.11231,0,0.25391-0.0127,0.46875-0.125l1.25-0.624-0.188-0.375c-0.3125,0.17084-0.61914,0.25-0.84375,0.25-0.2832,0-0.8125-0.17774-0.8125-1.28125v-3.5h1.375c0.20014-0.11719,0.25976-0.48535,0.0937-0.65625h-1.46875v-1.8125l-0.1875-0.125zm15.5,0-1.25,1.09375,0,0.84375-0.59375,0-0.46875,0.46875,0.0937,0.1875,0.96875,0,0,3.96875c0,1.17676,0.50292,1.6875,1.5625,1.6875,0.1123,0,0.2539-0.0127,0.46875-0.125l1.25-0.625-0.155-0.374c-0.30761,0.17084-0.64551,0.25-0.875,0.25-0.2832,0-0.8125-0.17774-0.8125-1.28125v-3.5h1.375c0.20015-0.11719,0.26463-0.48535,0.0937-0.65625h-1.46875v-1.8125l-0.1875-0.125zm-61.7188,1.0625,0.0312,0,1.09375,3.125-2.25,0,1.125-3.125zm14.8438,0.6875c-0.73731,0.2295-1.68164,0.41412-2.375,0.53125v0.3125c0.87413,0.0879,0.90625,0.14063,0.90625,1v3.15625c0,0.81055-0.0459,0.8545-0.96875,0.9375v0.40625h3.1875v-0.40625c-0.708-0.083-0.75-0.12695-0.75-0.9375v-3.4375c0.4248-0.36621,0.89257-0.5625,1.3125-0.5625,0.72753,0,1.09375,0.43359,1.09375,1.3125v2.6875c0,0.81055-0.0527,0.8545-0.84375,0.9375v0.40625h3.09375v-0.40625c-0.75195-0.083-0.8125-0.12695-0.8125-0.9375v-3.125c0-0.083-0.0312-0.20025-0.0312-0.3125,0.49316-0.39551,0.94824-0.5625,1.34375-0.5625,0.7666,0,1.09375,0.46289,1.09375,1.3125v2.6875c0,0.81055-0.0312,0.8545-0.8125,0.9375v0.40625h3.15625v-0.40625c-0.79101-0.083-0.875-0.12695-0.875-0.9375v-3.09375c0-1.08886-0.56737-1.875-1.8125-1.875-0.46875,0-0.8086,0.15235-1.21875,0.40625-0.26856,0.1709-0.62695,0.41211-0.96875,0.65625-0.24902-0.63965-0.8916-1.0625-1.6875-1.0625-0.41016,0-0.76465,0.1543-1.21875,0.4375-0.3125,0.2002-0.5586,0.37695-0.8125,0.5625v-1.03125zm11.5,0c-0.73732,0.2295-1.68164,0.41412-2.375,0.53125v0.3125c0.87402,0.0879,0.90625,0.13574,0.90625,1v3.15625c0,0.78125-0.0293,0.8545-0.9375,0.9375v0.40625h3.375v-0.40625c-0.88866-0.083-0.96875-0.15625-0.96875-0.9375v-5zm3.84375,0c-0.73242,0.22461-1.65039,0.419-2.34375,0.53125v0.3125c0.879,0.0879,0.90625,0.13574,0.90625,1v3.1875c0,0.77636-0.082,0.81835-1,0.90625v0.40625h3.25v-0.40625c-0.708-0.0879-0.8125-0.12989-0.8125-0.90625v-3.46875c0.40039-0.34179,0.89257-0.59375,1.3125-0.59375,0.7373,0,1.125,0.46289,1.125,1.3125v2.75c0,0.77636-0.0381,0.81835-0.84375,0.90625v0.40625h3.15625v-0.40625c-0.79101-0.0879-0.84375-0.12989-0.84375-0.90625v-3.125c0-1.07421-0.66504-1.875-1.8125-1.875-0.43947,0-0.7959,0.13965-1.25,0.4375-0.25879,0.1709-0.55566,0.36524-0.84375,0.53125v-1zm7.6875,0c-0.7373,0.2295-1.68164,0.41412-2.375,0.53125v0.3125c0.87892,0.0879,0.90625,0.13574,0.90625,1v3.15625c0,0.78125-0.0606,0.8545-0.96875,0.9375v0.40625h3.40625v-0.40625c-0.89356-0.083-0.96875-0.15625-0.96875-0.9375v-5zm13.125,0c-0.73731,0.2295-1.68163,0.419-2.375,0.53125v0.3125c0.87403,0.0879,0.90625,0.13574,0.90625,1v3.15625c0,0.78125-0.0713,0.8496-0.90625,0.9375v0.40625h3.5v-0.40625c-1.03516-0.0879-1.125-0.15625-1.125-0.9375v-2.875c0.3125-0.625,0.63086-0.78125,0.875-0.78125,0.22461,0,0.46094,0.1123,0.65625,0.3125,0.083,0.0829,0.25,0.1211,0.40625,0.0625,0.32715-0.12696,0.5625-0.55469,0.5625-0.90625,0-0.39551-0.36232-0.8125-0.875-0.8125-0.69337,0-1.25196,0.9004-1.59375,1.4375h-0.0312v-1.4375zm15.5312,0c-0.7373,0.2295-1.68164,0.41412-2.375,0.53125v0.3125c0.8789,0.0879,0.90625,0.13574,0.90625,1v3.15625c0,0.78125-0.0342,0.8545-0.9375,0.9375v0.40625h3.375v-0.40625c-0.89357-0.083-0.96875-0.15625-0.96875-0.9375v-5zm10.3438,0c-0.7373,0.22461-1.68164,0.419-2.375,0.53125v0.3125c0.87413,0.0879,0.90625,0.13574,0.90625,1v3.1875c0,0.77636-0.0771,0.81835-1,0.90625v0.40625h3.25v-0.40625c-0.70802-0.0879-0.78125-0.12989-0.78125-0.90625v-3.46875c0.39551-0.34179,0.85645-0.59375,1.28125-0.59375,0.73242,0,1.15625,0.46289,1.15625,1.3125v2.75c0,0.77636-0.0693,0.81835-0.875,0.90625v0.40625h3.1875v-0.40625c-0.791-0.0879-0.875-0.12989-0.875-0.90625v-3.125c0-1.07421-0.66504-1.875-1.8125-1.875-0.43945,0-0.79589,0.13965-1.25,0.4375-0.2539,0.1709-0.52929,0.36524-0.8125,0.53125v-1zm-35.125,0.0312c-1.44531,0.0293-2.25,0.90723-2.25,1.9375,0,1.03517,0.96875,1.59375,1.75,1.90625,0.76172,0.3125,1.09375,0.71875,1.09375,1.1875,0,0.58105-0.46094,0.90625-0.96875,0.90625-0.78125,0-1.52052-0.86426-1.75-1.71875l-0.34375,0.0312c-0.0146,0.5664,0.1045,1.45606,0.1875,1.65625,0.26855,0.25391,0.9668,0.5625,1.71875,0.5625,1.16211,0,2.5-0.59862,2.5-2,0-1.03515-0.81544-1.63575-1.875-2.03125-0.61035-0.22461-1.09375-0.59863-1.09375-1.0625,0-0.4541,0.31934-0.84375,0.8125-0.84375,0.5127,0,1.0293,0.29785,1.46875,1.25l0.40625-0.0937c-0.0293-0.16602-0.20215-1.12988-0.34375-1.4375-0.3125-0.14654-0.85839-0.2646-1.3125-0.25zm15.0312,0c-1.04492,0.2002-1.90429,0.71875-2.34375,1.03125-0.29785,0.2246-0.46875,0.46094-0.46875,0.65625,0,0.34179,0.4375,0.625,0.75,0.625,0.2246,0,0.3935-0.11231,0.4375-0.3125,0.1123-0.53711,0.24414-0.88184,0.46875-1.0625,0.12695-0.13189,0.33789-0.25,0.5625-0.25,0.65429,0,1.03125,0.3789,1.03125,1.21875v0.40625c-0.4541,0.2832-1.583,0.68553-2.28125,0.96875-0.7373,0.3125-1.0625,0.80665-1.0625,1.5,0,0.82031,0.6543,1.6875,1.71875,1.6875,0.2832,0,1.06055-0.52344,1.65625-0.875,0.0732,0.35156,0.3457,0.8458,1,0.875l1.46875-0.75-0.15625-0.34375c-0.18554,0.083-0.3916,0.15625-0.5625,0.15625-0.2002,0-0.40625-0.21485-0.40625-0.78125v-3.03125c0-0.49316-0.0566-0.96485-0.59375-1.375-0.2832-0.21485-0.7207-0.34375-1.21875-0.34375zm14.1875,0c-1.46973,0-3.25,1.11426-3.25,3.375,0,1.54785,1.09473,3.09375,3.21875,3.09375,1.51368,0,3.125-1.12208,3.125-3.34375,0-1.68458-1.22363-3.125-3.09375-3.125zm24.2812,0c-1.87012,0-3.18545,1.73242-3.15625,3.5,0.0293,1.66016,1.11328,2.96875,2.96875,2.96875,0.39551,0,1.4707-0.26075,2.28125-1.4375l-0.21875-0.25c-0.55175,0.42481-0.98536,0.59375-1.46875,0.59375-1.05958,0-2.18545-0.74902-2.15625-2.53125,1.54296-0.0537,3.36719-0.18955,3.5625-0.21875,0.27354-0.0586,0.3125-0.0713,0.3125-0.59375,0-1.0205-0.93848-2.03125-2.125-2.03125zm-24.4688,0.5c1.05958,0,1.625,1.15332,1.625,2.90625,0,2.01172-0.7334,2.5625-1.34375,2.5625-1.03028,0-1.65625-1.26562-1.65625-3.0625,0-1.52832,0.68164-2.40625,1.375-2.40625zm24.0938,0.0312c0.625,0,1.0625,0.74609,1.0625,1.3125,0,0.3125-0.0498,0.40625-0.25,0.40625l-2.125,0.0312c0.11232-1.05957,0.7168-1.75,1.3125-1.75zm-86.5625,0.0625c0.51269,0,0.96484,0.1709,1.21875,0.625v3.96875c-0.32715,0.2246-0.68165,0.34375-1.0625,0.34375-0.73731,0-1.75-0.72852-1.75-2.4375,0-2.22656,1.19824-2.5,1.59375-2.5zm79.875,0c0.50781,0,0.96485,0.1709,1.21875,0.625v3.96875c-0.32715,0.2246-0.68164,0.34375-1.0625,0.34375-0.7373,0-1.71875-0.72852-1.71875-2.4375,0-2.22656,1.167-2.5,1.5625-2.5zm-30.9688,2.21875,0,2.25c-0.32227,0.28809-0.71485,0.46875-0.96875,0.46875-0.36621,0-0.84375-0.32519-0.84375-1.0625,0-0.51269,0.22364-0.80372,0.6875-1.0625,0.25391-0.1416,0.82714-0.45215,1.125-0.59375zm-67.875,5.375c-0.75196,0.1709-1.7959,0.38575-2.40625,0.46875v0.375c0.92296,0.083,0.96875,0.0713,0.96875,0.90625v6.9375c0,0.78125-0.0899,0.88085-0.96875,0.96875v0.40625h3.40625v-0.40625c-0.92286-0.0879-1-0.1875-1-0.96875v-8.6875zm2,0c-0.3125,0-0.71875,0.22949-0.71875,0.625,0,0.28807,0.1289,0.38185,0.1875,0.40625,0.59082,0.11719,1,0.4961,1,1.0625,0,0.64941-0.4209,1.09766-1.1875,1.46875l0.126,0.345c1.04981-0.2539,2.15625-0.97364,2.15625-2.21875,0-1.04981-0.8545-1.6875-1.5625-1.6875zm121.969,0c-0.75195,0.1709-1.7959,0.38575-2.40625,0.46875v0.375c0.92286,0.083,0.9375,0.0713,0.9375,0.90625v6.9375c0,0.78125-0.0898,0.88085-0.96875,0.96875v0.40625h3.40625v-0.40625c-0.91796-0.0879-0.96875-0.1875-0.96875-0.96875v-8.6875zm-68.9375,0.375c-0.4834,0-0.90625,0.40039-0.90625,0.9375,0,0.49805,0.42285,0.90625,0.90625,0.90625,0.49805,0,0.90625-0.4082,0.90625-0.90625,0-0.53711-0.4082-0.9375-0.90625-0.9375zm44.125,0c-0.4834,0-0.90625,0.40039-0.90625,0.9375,0,0.49805,0.42285,0.90625,0.90625,0.90625,0.49316,0,0.9375-0.4082,0.9375-0.90625,0-0.53711-0.44434-0.9375-0.9375-0.9375zm-86.0938,0.34375c-0.0958,0.014-0.18115,0.0698-0.28125,0.21875l-1.5,2.15625,0.3125,0.1875,2.03125-1.71875c0.26847-0.24415,0.29785-0.4375,0-0.59375l-0.25-0.15625c-0.12695-0.0635-0.21668-0.10779-0.3125-0.0937zm35.3438,1.25-1.25,1.09375,0,0.84375-0.59375,0-0.4375,0.4375,0.0625,0.21875,0.96875,0,0,3.96875c0,1.17188,0.53418,1.6875,1.59375,1.6875,0.11719,0,0.25879-0.044,0.46875-0.15625l1.25-0.625-0.1875-0.34375c-0.3125,0.16605-0.61915,0.25-0.84375,0.25-0.28321,0-0.8125-0.17772-0.8125-1.28125v-3.5h1.375c0.19525-0.11718,0.2334-0.48535,0.0625-0.65625h-1.4375v-1.84375l-0.21875-0.0937zm18.1875,0-1.25,1.09375,0,0.84375-0.59375,0-0.46875,0.4375,0.0937,0.21875,0.96875,0,0,3.96875c0,1.17188,0.50294,1.6875,1.5625,1.6875,0.11719,0,0.25879-0.044,0.46875-0.15625l1.25-0.625-0.15625-0.34375c-0.3125,0.16605-0.65039,0.25-0.875,0.25-0.2832,0-0.8125-0.17772-0.8125-1.28125v-3.5h1.375c0.19525-0.11718,0.26465-0.48535,0.0937-0.65625h-1.46875v-1.84375l-0.1875-0.0937zm28.5312,0-1.25,1.09375,0,0.84375-0.59375,0-0.4375,0.4375,0.0625,0.21875,0.96875,0,0,3.96875c0,1.17188,0.52929,1.6875,1.59375,1.6875,0.1123,0,0.25879-0.044,0.46875-0.15625l1.25-0.625-0.1875-0.34375c-0.3125,0.16605-0.61915,0.25-0.84375,0.25-0.28321,0-0.8125-0.17772-0.8125-1.28125v-3.5h1.375c0.19525-0.11718,0.2334-0.48535,0.0625-0.65625h-1.4375v-1.84375l-0.21875-0.0937zm-66.0625,1.625c-0.89355,0.2539-1.71483,0.51465-2.4375,0.65625v0.3125c0.93262,0.083,0.96875,0.11328,0.96875,0.875v6.46875c0,0.75195-0.0947,0.82325-0.96875,0.90625v0.40625h3.65625v-0.40625c-1.13283-0.083-1.21875-0.1543-1.21875-0.90625v-1.90625c0.20996,0.11724,0.54395,0.21875,0.96875,0.21875,1.86524-0.39551,3.4375-1.70312,3.4375-3.8125,0-1.25977-0.82617-2.6875-2.4375-2.6875-0.2295,0-0.4209,0.0351-0.5625,0.0937l-1.40625,0.78125v-1zm-22.8438,0.125c-1.0498,0.2002-1.9043,0.71875-2.34375,1.03125-0.29785,0.22948-0.4375,0.45605-0.4375,0.65625,0,0.33691,0.40625,0.625,0.71875,0.625,0.22461,0,0.3985-0.11719,0.4375-0.3125,0.11231-0.542,0.2754-0.85058,0.5-1.03125,0.12696-0.12701,0.30664-0.25,0.53125-0.25,0.64941,0,1.03125,0.38378,1.03125,1.21875v0.375c-0.45411,0.2832-1.5879,0.68555-2.28125,0.96875-0.73731,0.3125-1.0625,0.80664-1.0625,1.5,0,0.82032,0.65918,1.71875,1.71875,1.71875,0.2832,0,1.06055-0.54982,1.65625-0.90625,0.0684,0.35643,0.3457,0.87705,1,0.90625l1.46875-0.78125-0.15625-0.34375c-0.18066,0.0879-0.3916,0.1875-0.5625,0.1875-0.19531,0-0.40625-0.2461-0.40625-0.8125v-3.03125c0-0.49316-0.0566-0.96483-0.59375-1.375-0.2832-0.20996-0.7207-0.34375-1.21875-0.34375zm6.25,0c-1.87011,0-3.18545,1.75879-3.15625,3.53125,0.0293,1.65527,1.11329,2.96875,2.96875,2.96875,0.39551,0,1.47559-0.29198,2.28125-1.46875l-0.216-0.217c-0.55177,0.42481-0.99024,0.59375-1.46875,0.59375-1.06446,0-2.18555-0.74415-2.15625-2.53125,1.54296-0.0537,3.3623-0.18955,3.5625-0.21875,0.26865-0.0586,0.28125-0.10254,0.28125-0.625,0-1.02051-0.90234-2.03125-2.09375-2.03125zm4.875,0c-0.7373,0.22461-1.68164,0.419-2.375,0.53125v0.3125c0.87901,0.083,0.90625,0.10937,0.90625,0.96875v3.15625c0,0.78125-0.10254,0.88085-0.9375,0.96875v0.40625h3.5v-0.40625c-1.03518-0.0879-1.09375-0.1875-1.09375-0.96875v-2.84375c0.30763-0.625,0.63575-0.78125,0.875-0.78125,0.2295,0,0.4248,0.1123,0.625,0.3125,0.083,0.083,0.28125,0.0851,0.4375,0.0312,0.32714-0.12697,0.5625-0.52343,0.5625-0.875,0-0.3955-0.36719-0.8125-0.875-0.8125-0.69335,0-1.25195,0.86427-1.59375,1.40625h-0.0312v-1.40625zm5.9375,0c-1.4746,0-3.25,1.10937-3.25,3.375,0,1.54297,1.09472,3.125,3.21875,3.125,1.51366,0,3.125-1.14844,3.125-3.375,0-1.68457-1.22362-3.125-3.09375-3.125zm14.0938,0c-1.46973,0-3.25,1.10937-3.25,3.375,0,1.54297,1.09472,3.125,3.21875,3.125,1.51855,0,3.15625-1.14844,3.15625-3.375,0-1.68457-1.25488-3.125-3.125-3.125zm5.90625,0c-0.7373,0.22461-1.68165,0.419-2.375,0.53125v0.3125c0.8789,0.083,0.90625,0.10937,0.90625,0.96875v3.15625c0,0.78125-0.0713,0.88085-0.90625,0.96875v0.40625h3.5v-0.40625c-1.03026-0.0879-1.125-0.1875-1.125-0.96875v-2.84375c0.3125-0.625,0.63574-0.78125,0.875-0.78125,0.22949,0,0.46093,0.1123,0.65625,0.3125,0.0879,0.083,0.25488,0.0851,0.40625,0.0312,0.32715-0.12697,0.5625-0.52343,0.5625-0.875,0-0.3955-0.36718-0.8125-0.875-0.8125-0.69825,0-1.25684,0.86427-1.59375,1.40625h-0.0312v-1.40625zm12.5312,0c-0.7373,0.22461-1.67676,0.419-2.375,0.53125v0.3125c0.8789,0.0879,0.90625,0.10448,0.90625,0.96875v3.15625c0,0.78125-0.0654,0.88085-0.96875,0.96875v0.40625h3.40625v-0.40625c-0.88868-0.0879-0.96875-0.1875-0.96875-0.96875v-4.96875zm3.84375,0c-0.7373,0.22461-1.6504,0.419-2.34375,0.53125v0.3125c0.87412,0.083,0.90625,0.10937,0.90625,0.96875v3.1875c0,0.78125-0.1084,0.8496-1.03125,0.9375v0.40625h3.28125v-0.40625c-0.70801-0.0879-0.8125-0.15625-0.8125-0.9375v-3.46875c0.39551-0.3418,0.8877-0.5625,1.3125-0.5625,0.73731,0,1.125,0.46777,1.125,1.3125v2.71875c0,0.78125-0.0381,0.8496-0.84375,0.9375v0.40625h3.15625v-0.40625c-0.79581-0.0879-0.84375-0.15625-0.84375-0.9375v-3.125c0-1.07423-0.6963-1.875-1.84375-1.875-0.43946,0-0.76465,0.1709-1.21875,0.46875-0.2539,0.1709-0.56055,0.36523-0.84375,0.53125v-1zm12.2812,0c-1.87012,0-3.18065,1.75879-3.15625,3.53125,0.0293,1.65527,1.11817,2.96875,2.96875,2.96875,0.40039,0,1.47558-0.29198,2.28125-1.46875l-0.1875-0.21875c-0.55177,0.42481-1.0166,0.59375-1.5,0.59375-1.05956,0-2.18065-0.74415-2.15625-2.53125,1.54785-0.0537,3.36718-0.18955,3.5625-0.21875,0.26865-0.0586,0.3125-0.0977,0.3125-0.625,0-1.02051-0.9336-2.03125-2.125-2.03125zm4.875,0c-0.7373,0.22461-1.68165,0.419-2.375,0.53125v0.3125c0.879,0.083,0.90625,0.10937,0.90625,0.96875v3.15625c0,0.78125-0.0713,0.88085-0.90625,0.96875v0.40625h3.5v-0.40625c-1.03026-0.0879-1.125-0.1875-1.125-0.96875v-2.84375c0.3125-0.625,0.63574-0.78125,0.875-0.78125,0.2246,0,0.46094,0.1123,0.65625,0.3125,0.0879,0.083,0.25489,0.0851,0.40625,0.0312,0.32715-0.12697,0.59375-0.52343,0.59375-0.875,0-0.3955-0.36719-0.8125-0.875-0.8125-0.69825,0-1.28809,0.86427-1.625,1.40625h-0.0312v-1.40625zm5.3125,0c-0.7373,0.22461-1.65039,0.419-2.34375,0.53125v0.3125c0.87901,0.083,0.90625,0.10937,0.90625,0.96875v3.1875c0,0.78125-0.1084,0.8496-1.03125,0.9375v0.40625h3.28125v-0.40625c-0.70802-0.0879-0.8125-0.15625-0.8125-0.9375v-3.46875c0.39551-0.3418,0.8877-0.5625,1.3125-0.5625,0.73243,0,1.125,0.46777,1.125,1.3125v2.71875c0,0.78125-0.0381,0.8496-0.84375,0.9375v0.40625h3.15625v-0.40625c-0.791-0.0879-0.84375-0.15625-0.84375-0.9375v-3.125c0-1.07423-0.69629-1.875-1.84375-1.875-0.43945,0-0.76463,0.1709-1.21875,0.46875-0.2539,0.1709-0.56054,0.36523-0.84375,0.53125v-1zm8.09375,0c-1.04981,0.2002-1.94042,0.71875-2.375,1.03125-0.29785,0.22948-0.4375,0.45605-0.4375,0.65625,0,0.33691,0.41112,0.625,0.71875,0.625,0.22948,0,0.3985-0.11719,0.4375-0.3125,0.1123-0.542,0.27538-0.85058,0.5-1.03125,0.12695-0.12701,0.3379-0.25,0.5625-0.25,0.64941,0,1,0.38378,1,1.21875v0.375c-0.4541,0.2832-1.58789,0.68555-2.28125,0.96875-0.7373,0.3125-1.0625,0.80664-1.0625,1.5,0,0.82032,0.65917,1.71875,1.71875,1.71875,0.2832,0,1.06054-0.54982,1.65625-0.90625,0.0684,0.35643,0.35058,0.87705,1,0.90625l1.46875-0.78125-0.15625-0.34375c-0.18068,0.0879-0.3916,0.1875-0.5625,0.1875-0.19531,0-0.375-0.2461-0.375-0.8125v-3.03125c0-0.49316-0.0566-0.96483-0.59375-1.375-0.2832-0.20996-0.72559-0.34375-1.21875-0.34375zm9.71875,0c-0.7373,0.22461-1.65039,0.419-2.34375,0.53125v0.3125c0.87892,0.0879,0.90625,0.10448,0.90625,0.96875v3.15625c0,0.78125-0.0605,0.88085-0.96875,0.96875v0.40625h3.40625v-0.40625c-0.88866-0.0879-1-0.1875-1-0.96875v-4.96875zm4.4375,0c-1.47461,0-3.25,1.10937-3.25,3.375,0,1.54297,1.09473,3.125,3.21875,3.125,1.51368,0,3.15625-1.14844,3.15625-3.375,0-1.68457-1.25489-3.125-3.125-3.125zm5.90625,0c-0.73732,0.22461-1.68164,0.419-2.375,0.53125v0.3125c0.879,0.083,0.9375,0.10937,0.9375,0.96875v3.1875c0,0.78125-0.11329,0.8496-1.03125,0.9375v0.40625h3.28125v-0.40625c-0.70798-0.0879-0.8125-0.15625-0.8125-0.9375v-3.46875c0.3955-0.3418,0.85644-0.5625,1.28125-0.5625,0.7373,0,1.15625,0.46777,1.15625,1.3125v2.71875c0,0.78125-0.0644,0.8496-0.875,0.9375v0.40625h3.1875v-0.40625c-0.79591-0.0879-0.84375-0.15625-0.84375-0.9375v-3.125c0-1.07423-0.6963-1.875-1.84375-1.875-0.43946,0-0.7959,0.1709-1.25,0.46875-0.25391,0.1709-0.52931,0.36523-0.8125,0.53125v-1zm8.0625,0c-1.04492,0.2002-1.90431,0.71875-2.34375,1.03125-0.29785,0.22948-0.4375,0.45605-0.4375,0.65625,0,0.33691,0.40625,0.625,0.71875,0.625,0.22461,0,0.3935-0.11719,0.4375-0.3125,0.1123-0.542,0.27051-0.85058,0.5-1.03125,0.12207-0.12701,0.30665-0.25,0.53125-0.25,0.6543,0,1.03125,0.38378,1.03125,1.21875v0.375c-0.4541,0.2832-1.583,0.68555-2.28125,0.96875-0.7373,0.3125-1.0625,0.80664-1.0625,1.5,0,0.82032,0.6543,1.71875,1.71875,1.71875,0.2832,0,1.06055-0.54982,1.65625-0.90625,0.0732,0.35643,0.35057,0.87705,1,0.90625l1.46875-0.78125-0.15625-0.34375c-0.18553,0.0879-0.3916,0.1875-0.5625,0.1875-0.2002,0-0.375-0.2461-0.375-0.8125v-3.03125c0-0.49316-0.0879-0.96483-0.625-1.375-0.2832-0.20996-0.72071-0.34375-1.21875-0.34375zm-95.2812,0.53125c1.06445,0,1.625,1.11719,1.625,2.875,0,2.00684-0.70215,2.5625-1.3125,2.5625-1.03517,0-1.65625-1.23438-1.65625-3.03125,0-1.52833,0.65038-2.40625,1.34375-2.40625zm14.125,0c1.05958,0,1.625,1.11719,1.625,2.875,0,2.00684-0.7334,2.5625-1.34375,2.5625-1.03028,0-1.65625-1.23438-1.65625-3.03125,0-1.52833,0.68165-2.40625,1.375-2.40625zm67,0c1.06446,0,1.625,1.11719,1.625,2.875,0,2.00684-0.70215,2.5625-1.3125,2.5625-1.03515,0-1.6875-1.23438-1.6875-3.03125,0-1.52833,0.68165-2.40625,1.375-2.40625zm-92.0938,0.0312c0.625,0,1.0625,0.74609,1.0625,1.3125,0,0.31249-0.0811,0.40625-0.28125,0.40625h-2.09375c0.1123-1.05956,0.71679-1.71875,1.3125-1.71875zm59.4688,0c0.62011,0,1.0625,0.74609,1.0625,1.3125,0,0.31249-0.0498,0.40625-0.25,0.40625h-2.125c0.1123-1.05956,0.7168-1.71875,1.3125-1.71875zm-41.375,0.4375c0.90333,0,1.75,0.60742,1.75,2.375,0,1.83105-0.93946,2.40625-1.59375,2.40625-0.52247,0-0.95899-0.23145-1.28125-0.5v-3.875c0.35156-0.25878,0.72461-0.40625,1.125-0.40625zm-23.5312,1.84375,0,2.25c-0.32715,0.27832-0.68359,0.46875-0.9375,0.46875-0.37109,0-0.875-0.35645-0.875-1.09375,0-0.5127,0.21875-0.8086,0.6875-1.0625,0.25391-0.14649,0.82714-0.42089,1.125-0.5625zm83.9688,0,0,2.25c-0.32715,0.27832-0.67871,0.46875-0.9375,0.46875-0.36621,0-0.84375-0.35645-0.84375-1.09375,0-0.5127,0.1875-0.8086,0.65625-1.0625,0.2539-0.14649,0.82715-0.42089,1.125-0.5625zm28.1562,0,0,2.25c-0.32226,0.27832-0.6836,0.46875-0.9375,0.46875-0.36621,0-0.875-0.35645-0.875-1.09375,0-0.5127,0.22364-0.8086,0.6875-1.0625,0.2539-0.14649,0.82715-0.42089,1.125-0.5625z"/>
 </g>
</svg>
